<svg width="22" height="22" viewBox="0 0 22 22" fill="none" xmlns="http://www.w3.org/2000/svg">
<path d="M7.7986 9.90625H4.3611C3.83435 9.90625 3.32918 9.697 2.95672 9.32453C2.58425 8.95207 2.375 8.4469 2.375 7.92015C2.375 7.3934 2.58425 6.88823 2.95672 6.51576C3.32918 6.1433 3.83435 5.93405 4.3611 5.93405H9.8611V4.55905H6.93923V2H5.56423V4.55905H4.3611C3.46968 4.55905 2.61477 4.91316 1.98444 5.54349C1.35411 6.17382 1 7.02873 1 7.92015C1 8.81157 1.35411 9.66648 1.98444 10.2968C2.61477 10.9271 3.46968 11.2812 4.3611 11.2812H7.7986C8.32517 11.2818 8.83 11.4913 9.20233 11.8636C9.57467 12.236 9.78411 12.7408 9.7847 13.2674V13.4201C9.78411 13.9467 9.57467 14.4515 9.20233 14.8239C8.83 15.1962 8.32517 15.4057 7.7986 15.4062H1.98033V16.7812H5.56423V19.1875H6.93923V16.7812H7.7986C8.68971 16.7802 9.54404 16.4258 10.1742 15.7957C10.8043 15.1656 11.1587 14.3113 11.1597 13.4201V13.2674C11.1587 12.3762 10.8043 11.5219 10.1742 10.8918C9.54404 10.2617 8.68971 9.90725 7.7986 9.90625Z" fill="#666666"/>
</svg>
