<svg width="22" height="22" viewBox="0 0 22 22" fill="none" xmlns="http://www.w3.org/2000/svg">
<g clip-path="url(#clip0_247_29)">
<path d="M11 1.83331C16.0627 1.83331 20.1667 5.93723 20.1667 11C20.1667 16.0627 16.0627 20.1666 11 20.1666C5.93725 20.1666 1.83333 16.0627 1.83333 11C1.83333 5.93723 5.93725 1.83331 11 1.83331ZM11 14.6666C10.7569 14.6666 10.5237 14.7632 10.3518 14.9351C10.1799 15.107 10.0833 15.3402 10.0833 15.5833C10.0833 15.8264 10.1799 16.0596 10.3518 16.2315C10.5237 16.4034 10.7569 16.5 11 16.5C11.2431 16.5 11.4763 16.4034 11.6482 16.2315C11.8201 16.0596 11.9167 15.8264 11.9167 15.5833C11.9167 15.3402 11.8201 15.107 11.6482 14.9351C11.4763 14.7632 11.2431 14.6666 11 14.6666ZM11 5.95831C10.1187 5.95831 9.27351 6.30841 8.65034 6.93157C8.02717 7.55474 7.67708 8.39994 7.67708 9.28123C7.67708 9.52434 7.77366 9.7575 7.94556 9.92941C8.11747 10.1013 8.35063 10.1979 8.59375 10.1979C8.83686 10.1979 9.07002 10.1013 9.24193 9.92941C9.41383 9.7575 9.51041 9.52434 9.51041 9.28123C9.51072 9.01085 9.58461 8.74564 9.72416 8.51406C9.86372 8.28248 10.0637 8.09325 10.3026 7.96666C10.5415 7.84007 10.8104 7.7809 11.0804 7.79549C11.3504 7.81008 11.6113 7.89788 11.8352 8.04948C12.0591 8.20108 12.2375 8.41076 12.3513 8.65603C12.465 8.90131 12.5099 9.17293 12.4811 9.44177C12.4522 9.71061 12.3508 9.96654 12.1876 10.1821C12.0243 10.3977 11.8055 10.5647 11.5546 10.6654C10.9349 10.9129 10.0833 11.5472 10.0833 12.6041V12.8333C10.0833 13.0764 10.1799 13.3096 10.3518 13.4815C10.5237 13.6534 10.7569 13.75 11 13.75C11.2431 13.75 11.4763 13.6534 11.6482 13.4815C11.8201 13.3096 11.9167 13.0764 11.9167 12.8333C11.9167 12.6096 11.9625 12.4978 12.1559 12.4025L12.2357 12.3658C12.9514 12.0779 13.5447 11.5499 13.9138 10.8725C14.283 10.195 14.4049 9.41028 14.2589 8.65275C14.1128 7.89522 13.7077 7.21209 13.1131 6.72049C12.5186 6.22889 11.7715 5.95944 11 5.95831Z" fill="#222222"/>
</g>
<defs>
<clipPath id="clip0_247_29">
<rect width="22" height="22" fill="white"/>
</clipPath>
</defs>
</svg>
