<svg width="22" height="22" viewBox="0 0 22 22" fill="none" xmlns="http://www.w3.org/2000/svg">
<g clip-path="url(#clip0_247_49)">
<path d="M11.6435 2.01209L18.0602 4.41834C18.4097 4.54936 18.7109 4.78396 18.9235 5.09077C19.1361 5.39758 19.25 5.76198 19.25 6.13526V11.0513C19.25 12.5835 18.8234 14.0854 18.0179 15.3887C17.2125 16.692 16.06 17.7453 14.6896 18.4305L11.6151 19.9668C11.4241 20.0624 11.2135 20.1121 11 20.1121C10.7865 20.1121 10.5759 20.0624 10.3849 19.9668L7.31042 18.4296C5.94004 17.7444 4.78754 16.6911 3.98206 15.3878C3.17659 14.0844 2.74997 12.5826 2.75 11.0504V6.13618C2.74977 5.76274 2.86358 5.39813 3.07621 5.09114C3.28885 4.78415 3.59016 4.54942 3.93983 4.41834L10.3565 2.01209C10.7714 1.85657 11.2286 1.85657 11.6435 2.01209ZM11 7.33334C10.7755 7.33337 10.5588 7.4158 10.391 7.565C10.2232 7.71419 10.116 7.91978 10.0898 8.14276L10.0833 8.25001V10.0833H8.25C8.01636 10.0836 7.79164 10.1731 7.62175 10.3335C7.45185 10.4938 7.34962 10.713 7.33593 10.9463C7.32223 11.1795 7.39812 11.4092 7.54808 11.5884C7.69803 11.7675 7.91075 11.8827 8.14275 11.9103L8.25 11.9167H10.0833V13.75C10.0836 13.9836 10.1731 14.2084 10.3334 14.3783C10.4938 14.5482 10.713 14.6504 10.9463 14.6641C11.1795 14.6778 11.4092 14.6019 11.5883 14.4519C11.7675 14.302 11.8827 14.0893 11.9103 13.8573L11.9167 13.75V11.9167H13.75C13.9836 11.9164 14.2084 11.827 14.3783 11.6666C14.5481 11.5062 14.6504 11.287 14.6641 11.0537C14.6778 10.8205 14.6019 10.5908 14.4519 10.4117C14.302 10.2325 14.0893 10.1174 13.8573 10.0898L13.75 10.0833H11.9167V8.25001C11.9167 8.00689 11.8201 7.77374 11.6482 7.60183C11.4763 7.42992 11.2431 7.33334 11 7.33334Z" fill="#AE1515"/>
</g>
<defs>
<clipPath id="clip0_247_49">
<rect width="22" height="22" fill="white"/>
</clipPath>
</defs>
</svg>
