<svg width="77" height="71" viewBox="0 0 77 71" fill="none" xmlns="http://www.w3.org/2000/svg">
<path fill-rule="evenodd" clip-rule="evenodd" d="M38.5 11.8334C34.0108 11.8326 29.5998 12.9175 25.7075 14.9799C21.8151 17.0423 18.5774 20.0099 16.3176 23.5867C14.0578 27.1634 12.855 31.2241 12.8291 35.3634C12.8031 39.5028 13.9551 43.576 16.17 47.1766C17.667 45.3826 19.5915 43.93 21.7945 42.9313C23.9975 41.9325 26.4201 41.4143 28.875 41.4167H48.125C50.5799 41.4143 53.0025 41.9325 55.2055 42.9313C57.4085 43.93 59.333 45.3826 60.83 47.1766C63.0449 43.576 64.1968 39.5028 64.1709 35.3634C64.145 31.2241 62.9422 27.1634 60.6824 23.5867C58.4226 20.0099 55.1849 17.0423 51.2925 14.9799C47.4002 12.9175 42.9892 11.8326 38.5 11.8334ZM63.9838 53.4749C68.2734 48.3184 70.5937 41.9988 70.5833 35.5C70.5833 19.1611 56.2196 5.91669 38.5 5.91669C20.7804 5.91669 6.41666 19.1611 6.41666 35.5C6.40607 41.9988 8.72636 48.3185 13.0162 53.4749L13.0002 53.5281L14.1391 54.7499C17.1482 57.9937 20.8843 60.5974 25.0899 62.3813C29.2955 64.1653 33.8707 65.0871 38.5 65.0834C45.0043 65.0944 51.3571 63.2726 56.7073 59.8619C58.9882 58.4088 61.0564 56.6906 62.8609 54.7499L63.9998 53.5281L63.9838 53.4749ZM38.5 17.75C35.9473 17.75 33.4991 18.6851 31.6941 20.3494C29.8891 22.0138 28.875 24.2712 28.875 26.625C28.875 28.9788 29.8891 31.2362 31.6941 32.9006C33.4991 34.565 35.9473 35.5 38.5 35.5C41.0527 35.5 43.5009 34.565 45.3059 32.9006C47.1109 31.2362 48.125 28.9788 48.125 26.625C48.125 24.2712 47.1109 22.0138 45.3059 20.3494C43.5009 18.6851 41.0527 17.75 38.5 17.75Z" fill="#888888"/>
</svg>
