<svg width="22" height="22" viewBox="0 0 22 22" fill="none" xmlns="http://www.w3.org/2000/svg">
<path d="M5.49998 13.75C5.25686 13.75 5.02371 13.8465 4.8518 14.0184C4.67989 14.1904 4.58331 14.4235 4.58331 14.6666V17.4166C4.58331 17.6597 4.67989 17.8929 4.8518 18.0648C5.02371 18.2367 5.25686 18.3333 5.49998 18.3333C5.74309 18.3333 5.97625 18.2367 6.14816 18.0648C6.32007 17.8929 6.41665 17.6597 6.41665 17.4166V14.6666C6.41665 14.4235 6.32007 14.1904 6.14816 14.0184C5.97625 13.8465 5.74309 13.75 5.49998 13.75ZM9.16665 11C8.92353 11 8.69037 11.0965 8.51847 11.2684C8.34656 11.4404 8.24998 11.6735 8.24998 11.9166V17.4166C8.24998 17.6597 8.34656 17.8929 8.51847 18.0648C8.69037 18.2367 8.92353 18.3333 9.16665 18.3333C9.40976 18.3333 9.64292 18.2367 9.81483 18.0648C9.98674 17.8929 10.0833 17.6597 10.0833 17.4166V11.9166C10.0833 11.6735 9.98674 11.4404 9.81483 11.2684C9.64292 11.0965 9.40976 11 9.16665 11ZM16.5 3.66663C16.2569 3.66663 16.0237 3.7632 15.8518 3.93511C15.6799 4.10702 15.5833 4.34018 15.5833 4.58329V17.4166C15.5833 17.6597 15.6799 17.8929 15.8518 18.0648C16.0237 18.2367 16.2569 18.3333 16.5 18.3333C16.7431 18.3333 16.9763 18.2367 17.1482 18.0648C17.3201 17.8929 17.4166 17.6597 17.4166 17.4166V4.58329C17.4166 4.34018 17.3201 4.10702 17.1482 3.93511C16.9763 3.7632 16.7431 3.66663 16.5 3.66663ZM12.8333 7.33329C12.5902 7.33329 12.357 7.42987 12.1851 7.60178C12.0132 7.77369 11.9166 8.00684 11.9166 8.24996V17.4166C11.9166 17.6597 12.0132 17.8929 12.1851 18.0648C12.357 18.2367 12.5902 18.3333 12.8333 18.3333C13.0764 18.3333 13.3096 18.2367 13.4815 18.0648C13.6534 17.8929 13.75 17.6597 13.75 17.4166V8.24996C13.75 8.00684 13.6534 7.77369 13.4815 7.60178C13.3096 7.42987 13.0764 7.33329 12.8333 7.33329Z" fill="#666666"/>
</svg>
