<svg width="22" height="22" viewBox="0 0 22 22" fill="none" xmlns="http://www.w3.org/2000/svg">
<path d="M14.6667 9.16667C14.6667 10.1391 14.2804 11.0718 13.5927 11.7594C12.9051 12.447 11.9725 12.8333 11 12.8333C10.0275 12.8333 9.09492 12.447 8.40729 11.7594C7.71965 11.0718 7.33334 10.1391 7.33334 9.16667C7.33334 8.19421 7.71965 7.26157 8.40729 6.57394C9.09492 5.88631 10.0275 5.5 11 5.5C11.9725 5.5 12.9051 5.88631 13.5927 6.57394C14.2804 7.26157 14.6667 8.19421 14.6667 9.16667Z" fill="#666666"/>
<path fill-rule="evenodd" clip-rule="evenodd" d="M10.626 20.1594C5.73697 19.9632 1.83334 15.9372 1.83334 11C1.83334 5.93729 5.93726 1.83337 11 1.83337C16.0628 1.83337 20.1667 5.93729 20.1667 11C20.1667 16.0628 16.0628 20.1667 11 20.1667C10.9581 20.167 10.9163 20.167 10.8744 20.1667C10.7915 20.1667 10.7085 20.164 10.626 20.1594ZM5.11776 16.7842C5.04922 16.5874 5.02589 16.3777 5.04951 16.1706C5.07312 15.9635 5.14306 15.7644 5.25415 15.5881C5.36524 15.4117 5.51461 15.2627 5.69119 15.152C5.86777 15.0413 6.06701 14.9718 6.27414 14.9486C9.8473 14.553 12.1747 14.5888 15.7305 14.9568C15.9379 14.9784 16.1376 15.0471 16.3145 15.1575C16.4913 15.268 16.6406 15.4173 16.7511 15.5942C16.8615 15.7711 16.9301 15.9709 16.9516 16.1783C16.9732 16.3857 16.9471 16.5953 16.8754 16.7911C18.3993 15.2492 19.2527 13.1679 19.25 11C19.25 6.44375 15.5563 2.75004 11 2.75004C6.44372 2.75004 2.75001 6.44375 2.75001 11C2.75001 13.2532 3.65339 15.2955 5.11776 16.7842Z" fill="#666666"/>
</svg>
